<?xml version="1.0" standalone="no"?>
<!DOCTYPE svg PUBLIC "-//W3C//DTD SVG 1.1//EN" "http://www.w3.org/Graphics/SVG/1.1/DTD/svg11.dtd">
<svg xmlns="http://www.w3.org/2000/svg">
<metadata>Copyright (C) 2019 by original authors @ fontello.com</metadata>
<defs>
<font id="icons" horiz-adv-x="1000" >
<font-face font-family="icons" font-weight="400" font-stretch="normal" units-per-em="1000" ascent="850" descent="-150" />
<missing-glyph horiz-adv-x="1000" />
<glyph glyph-name="blind" unicode="&#xe800;" d="M708 625h-416c-37 0-67-30-67-67v-416c0-37 30-67 67-67h416c37 0 67 30 67 67v416c0 37-30 67-67 67h0z m-416-25h416c23 0 42-19 42-42v-8h-500v8c0 0 0 0 0 0 0 23 19 42 42 42h0z m-42-203v51h500v-51z m501-25v-52h-501v52z m-501 101v52h500v-52z m458-373h-416c-23 0-42 19-42 42v153h500v-153c0-23-19-42-42-42h0z" horiz-adv-x="1000" />

<glyph glyph-name="climate" unicode="&#xe801;" d="M466 224v379c-2 32-28 57-60 57s-57-25-59-57l0 0v-379c-26-19-43-49-43-84 0-55 43-100 97-102l1 0h5c56 0 102 46 102 102 0 35-17 65-43 84l0 0z m-6-140c-14-13-33-22-53-22-2 0-3 0-5 1l1 0c-41 2-74 36-74 77 0 28 15 52 37 66l0 0 6 4v393c1 18 16 33 35 33s33-15 34-33l0 0v-393l6-4c22-13 37-38 37-66 0-22-9-42-24-56l0 0z m-53 80c-13 0-24-10-24-23s11-23 24-23c12 0 23 10 23 23v0c0 13-11 23-23 23v0z m109 461v-25h168v25z m0-111h168v25h-168z m0-87h168v25h-168z m0-87h168v25h-168z m0-86h168v25h-168z" horiz-adv-x="1000" />

<glyph glyph-name="close" unicode="&#xe802;" d="M696 529l-17 17-179-178-179 178-17-17 178-179-178-179 17-17 179 178 179-178 17 17-178 179 178 179z" horiz-adv-x="1000" />

<glyph glyph-name="down-arrow" unicode="&#xe803;" d="M499 220l-233 231 18 18 215-214 217 216 18-17-235-234z" horiz-adv-x="1000" />

<glyph glyph-name="home" unicode="&#xe804;" d="M791 360l-260 259c-8 8-19 13-31 13s-23-5-31-13l-260-259 18-18 37 37v-242c0-33 26-59 59-59h354c33 0 59 26 59 59v242l37-37z m-80-223c0 0 0 0 0 0 0-19-15-34-34-34h-165v103h-25v-103h-164c-19 0-34 15-34 34 0 0 0 0 0 0v0 267l197 197c4 4 9 6 14 6s10-2 14-6l0 0 197-197z" horiz-adv-x="1000" />

<glyph glyph-name="home1" unicode="&#xe805;" d="M791 360l-260 259c-8 8-19 13-31 13s-23-5-31-13l-260-259 18-18 37 37v-242c0-33 26-59 59-59h354c33 0 59 26 59 59v242l37-37z m-80-223c0 0 0 0 0 0 0-19-15-34-34-34h-165v103h-25v-103h-164c-19 0-34 15-34 34 0 0 0 0 0 0v0 267l197 197c4 4 9 6 14 6s10-2 14-6l0 0 197-197z" horiz-adv-x="1000" />

<glyph glyph-name="left-arrow" unicode="&#xe806;" d="M604 116l-234 235 231 233 18-18-214-215 216-217-17-18z" horiz-adv-x="1000" />

<glyph glyph-name="light" unicode="&#xe807;" d="M575 459v91c0 35-28 63-62 63v0h-25v75h-25v-75h-25c-35 0-63-28-63-63v0-91c-53-33-87-92-87-158 0-96 72-175 165-186l1 0c6-1 14-2 21-2h0c1 0 1 0 1 0 48 0 92 19 124 48l0 0c39 35 63 84 63 140 0 66-35 125-87 158l-1 0z m8-279c-28-26-67-42-109-42-89 0-162 73-162 162 0 60 33 113 81 141l1 0 6 4v105c0 21 17 38 38 38v0h75c20 0 37-17 37-38v0-105l6-4c49-28 81-80 81-140 0-48-20-91-53-121l-1 0z m-120 270h25v88h-25z m-300-137h75v25h-75z m550 25v-25h75v25z m-393 156l-57 57-18-18 57-57z m310-345l58-58 17 18-57 57z m-385-40l18-18 57 58-18 17z m385 385l18-18 57 57-17 18z m-167-481h25v75h-25z" horiz-adv-x="1000" />

<glyph glyph-name="link" unicode="&#xe808;" d="M775 550h-300c0 0-1 0-1 0-27 0-48-21-49-48l0 0v-36h25v36c1 13 11 23 24 23 0 0 1 0 1 0l0 0h300c0 0 1 0 1 0 13 0 23-10 24-23l0 0v-179c-1-13-11-23-24-23 0 0-1 0-1 0l0 0h-300c0 0-1 0-1 0-13 0-23 10-24 23l0 0v43h-25v-43c1-27 22-48 49-48 0 0 1 0 1 0l0 0h300c0 0 1 0 1 0 27 0 48 21 49 48l0 0v179c-1 27-22 48-49 48 0 0-1 0-1 0l0 0z m-225-352c0-13-11-23-24-23 0 0-1 0-1 0l0 0h-300c0 0-1 0-1 0-13 0-23 10-24 23l0 0v179c1 13 11 23 24 23 0 0 1 0 1 0l0 0h300c0 0 1 0 1 0 13 0 24-10 24-23l0 0v-47h25v47c-1 27-22 48-49 48 0 0-1 0-1 0l0 0h-300c0 0-1 0-1 0-27 0-48-21-49-48l0 0v-179c1-27 22-48 49-48 0 0 1 0 1 0l0 0h300c0 0 1 0 1 0 27 0 48 21 49 48l0 0v32h-25z" horiz-adv-x="1000" />

<glyph glyph-name="music" unicode="&#xe809;" d="M758 601c0 0 0 0 0 0 0 28-22 50-50 50-7 0-13-1-19-4l0 1-275-106c-18-8-30-25-30-46v0-323c-6 4-13 8-21 11l-1 0c-8 2-17 4-27 4-34 0-64-18-82-44l0 0c-7-10-11-22-11-35 0-7 2-14 4-20l0 1c11-25 35-41 62-41 2 0 3 0 5 0l0 0c12 0 24 2 35 6l-1 0c40 14 64 50 58 83 2 2 3 5 3 8v350c0 0 0 0 0 0 0 10 6 19 15 23l0 0 275 105c3 1 6 2 10 2 14 0 25-11 25-25 0 0 0 0 0 0v0-291c-6 5-13 9-21 11l-1 0c-8 3-17 4-27 4-34 0-64-17-82-43l0 0c-7-10-11-22-11-35 0-7 2-14 4-20l0 0c11-24 35-41 62-41 2 0 4 0 6 0l0 0c12 0 24 3 35 7l-1-1c40 15 64 50 58 83 2 3 3 5 3 9v0z m-420-523c-30-11-61-2-69 20-1 3-2 7-2 11 0 8 3 16 7 22l0 0c8 12 21 22 35 27l0 0c8 3 17 5 26 5 1 0 1 0 1 0h0c0 0 0 0 0 0 6 0 13-2 19-3l-1 0c12-3 21-11 25-22l0 0c9-22-10-49-41-60z m350 138c-30-11-62-2-69 20-1 3-2 7-2 11 0 8 3 15 7 21l0 0c8 13 21 22 35 27l0 1c8 2 17 4 26 4 1 0 1 0 1 0h0c0 0 0 0 0 0 6 0 13-1 19-3l-1 0c12-3 21-11 25-21l0 0c9-22-10-49-41-60z" horiz-adv-x="1000" />

<glyph glyph-name="next" unicode="&#xe80a;" d="M338 150l2 400 198-199v199h125v-400h-125v201l-200-201z" horiz-adv-x="1000" />

<glyph glyph-name="pause" unicode="&#xe80b;" d="M588 625v-550h225v550z m-400-550h225v550h-225z" horiz-adv-x="1000" />

<glyph glyph-name="play" unicode="&#xe80c;" d="M255 717l495-365-500-369 5 734z" horiz-adv-x="1000" />

<glyph glyph-name="playlist" unicode="&#xe80d;" d="M756 588c0 6-6 12-13 12s-12-6-12-12v0-356c-7 6-16 10-25 13l0 0c-9 3-19 5-29 5-14 0-26-3-38-7l1 0c-47-17-74-62-60-99 10-28 39-44 72-44 14 0 27 3 39 7l-1 0c43 15 69 54 62 89 3 3 4 6 4 9v0z m-75-458c-34-12-69-2-78 22s12 55 45 67c9 4 19 6 29 6l1 0c0 0 0 0 0 0 7 0 14-1 21-3l-1 0c13-3 23-12 28-24l0 0c9-25-11-55-45-68z m-15 460h-409v-25h409z m0-167h-409v-25h409z m0-84h-409v-25h409z m-409-108h259v25h-259z m0-82h259v25h-259z m409 358h-409v-25h409z" horiz-adv-x="1000" />

<glyph glyph-name="power-on" unicode="&#xe80e;" d="M513 632h-25v-321h25z m168-140c-28 27-61 48-98 61l-2 0-8-23c35-12 65-31 90-56l0 0c41-41 67-99 67-163 0-127-103-230-230-230s-231 103-231 230c0 64 26 122 68 163v0c24 25 54 44 87 55l2 1-8 23c-102-35-173-130-173-241 0-141 114-256 255-256s256 115 256 256c0 70-29 134-75 180l0 0z" horiz-adv-x="1000" />

<glyph glyph-name="prev" unicode="&#xe80f;" d="M663 150l-3 400-197-199v199h-125v-400h125v201l200-201z" horiz-adv-x="1000" />

<glyph glyph-name="radio" unicode="&#xe810;" d="M600 298h113v25h-113z m0-87h113v25h-113z m0-87h113v25h-113z m121 306h-364l331 230-14 21-361-251h-34c-37-1-66-31-66-67v-278c0-38 30-68 67-68h441c37 1 66 31 67 68v278c-1 36-30 66-67 67h0z m42-345c0-24-19-43-43-43h-441c-23 1-41 19-41 43 0 0 0 0 0 0v0 278c0 0 0 0 0 0 0 23 18 42 42 42h441c23 0 42-19 42-42 0 0 0 0 0 0v0z m-350 273c-76 0-138-62-138-138s62-137 138-137c75 0 137 61 137 137v0c0 76-62 138-137 138v0z m0-250c-63 0-113 50-113 112s50 113 113 113c62 0 112-51 112-113v0c0-62-50-112-112-112v0z m0 137c-14 0-25-11-25-25s11-25 25-25c13 0 25 11 25 25v0c0 14-12 25-25 25v0z" horiz-adv-x="1000" />

<glyph glyph-name="remote" unicode="&#xe811;" d="M633 675h-266c-37 0-67-30-67-67v-516c0-37 30-67 67-67h266c37 0 67 30 67 67v516c0 37-30 67-67 67h0z m42-583c0-23-19-42-42-42h-266c-23 0-42 19-42 42v516c0 23 19 42 42 42h266c23 0 42-19 42-42v0z m-290 408h80c5 0 10 5 10 10v0 80c0 5-5 10-10 10v0h-80c-5 0-10-5-10-10v0-80c0-5 5-10 10-10v0z m15 75h50v-50h-50z m215 25h-80c-5 0-10-5-10-10v0-80c0-5 5-10 10-10v0h80c5 0 10 5 10 10v0 80c0 5-5 10-10 10v0z m-15-75h-50v50h50z m-125-165v80c0 5-5 10-10 10v0h-80c-5 0-10-5-10-10v0-80c0-5 5-10 10-10v0h80c5 0 10 5 10 10v0z m-25 15h-50v50h50z m165 75h-80c-5 0-10-5-10-10v0-80c0-5 5-10 10-10v0h80c5 0 10 5 10 10v0 80c0 5-5 10-10 10v0z m-15-75h-50v50h50z m-100-75c-55 0-100-45-100-100s45-100 100-100c55 0 100 45 100 100v0c0 55-45 100-100 100v0z m0-175c-41 0-75 34-75 75s34 75 75 75c41 0 75-34 75-75v0c0-41-34-75-75-75v0z" horiz-adv-x="1000" />

<glyph glyph-name="right-arrow" unicode="&#xe812;" d="M399 116l-18 18 214 215-216 217 17 18 234-235-231-233z" horiz-adv-x="1000" />

<glyph glyph-name="search" unicode="&#xe813;" d="M521 567c-30 31-72 50-119 50-93 0-169-76-169-169s76-168 169-168c47 0 89 18 119 49v0c31 30 49 73 49 119s-18 89-49 119l0 0z m-221-220c-26 26-42 61-42 101 0 79 64 144 144 144s143-65 143-144c0-40-16-75-42-101v0c-26-26-62-43-101-43s-76 17-102 43v0z m450-162l-166 165-18-17 166-166c6-6 10-15 10-24 0-19-16-35-35-35-9 0-18 4-24 10l-165 166-18-18 166-166c10-11 25-17 42-17 33 0 60 26 60 59 0 17-7 32-18 43v0z" horiz-adv-x="1000" />

<glyph glyph-name="speaker" unicode="&#xe814;" d="M625 600h-250c-34 0-62-28-62-62v0-375c0-35 28-63 62-63v0h250c35 0 63 28 63 63v0 375c0 34-28 62-63 62v0z m38-437c0-21-17-38-38-38v0h-250c-21 0-37 17-37 38v0 375c0 20 16 37 37 37v0h250c21 0 38-17 38-37v0z m-157 216c-57 0-103-46-103-102 0-57 46-103 103-103s103 46 103 103v0c-1 56-47 102-103 102v0z m0-180c-43 0-78 35-78 78 0 43 35 77 78 77s78-34 78-77v0c-1-43-35-78-78-78 0 0 0 0 0 0v0z m0 212c31 0 57 26 57 58s-26 58-57 58c-32 0-58-26-58-58v0c0 0 0 0 0 0 0-32 26-58 58-58h0z m0 91c18 0 32-15 32-33s-14-33-32-33c-18 0-33 15-33 33v0c0 18 15 32 33 32 0 0 0 0 0 0v0z" horiz-adv-x="1000" />

<glyph glyph-name="speakers" unicode="&#xe815;" d="M468 600h-251c-35 0-63-28-63-62v0-375c0-35 28-63 63-63v0h251c34 0 62 28 62 63v0 375c0 34-28 62-62 62v0z m37-437c0-21-17-38-37-38v0h-251c-21 0-38 17-38 38v0 375c0 20 17 37 38 37v0h251c20 0 37-17 37-37v0z m-157 216c0 0-1 0-1 0-56 0-102-46-102-102s46-103 102-103c57 0 103 46 103 103v0c0 56-46 102-102 102h0z m0-180c0 0-1 0-1 0-43 0-77 35-77 78s34 77 77 77c43 0 78-34 78-77v0c0-43-35-78-77-78h0z m0 212c31 0 57 26 57 58s-26 58-57 58c-32 0-58-26-58-58v0c0 0 0 0 0 0 0-32 26-58 58-58h0z m0 91c18 0 32-15 32-33s-14-33-32-33c-18 0-33 15-33 33v0c0 18 15 32 33 32 0 0 0 0 0 0v0z m436 98h-229v-25h229c20 0 37-17 37-37v0-375c0-21-17-38-37-38v0h-229v-25h229c34 0 62 28 62 63v0 375c0 34-28 62-62 62v0z m-223-323c0 0 0 0 0 0 0-57 46-103 103-103s103 46 103 103c0 56-46 102-103 102 0 0 0 0 0 0h0c-57 0-103-46-103-102v0z m103 77c43 0 77-34 77-77s-34-78-77-78c-43 0-78 35-78 78v0c0 43 35 77 78 77h0z m57 115c0 0 0 0 0 0 0 32-25 57-57 57s-58-25-58-57c0-32 26-58 58-58v0c0 0 0 0 0 0 32 0 57 26 57 58v0z m-90 0c0 0 0 0 0 0 0 18 15 32 33 32s33-14 33-32c0-18-15-33-33-33 0 0 0 0 0 0h0c-18 0-33 15-33 33v0z" horiz-adv-x="1000" />

<glyph glyph-name="stairs" unicode="&#xe816;" d="M293 516c30 0 55 25 55 55s-25 54-55 54c-30 0-54-24-54-54v0c0-30 24-55 54-55v0z m0 84c17 0 30-13 30-29s-13-30-30-30c-16 0-29 13-29 30v0c0 16 13 29 29 29v0z m160-223h-105v42c0 0 0 0 0 0 0 30-25 54-54 54-17 0-32-7-42-19l0-1-121-120 17-18 91 91v-166l-89-89 18-18 96 97v189c0 16 13 29 30 29s29-13 29-29v-331h25v264h105z m305 111v-78h-72v-74h-73v-66h-72v-77h-75v-75h-72v-25h97v75h75v77h72v66h73v74h72v78h78v25z" horiz-adv-x="1000" />

<glyph glyph-name="tv" unicode="&#xe817;" d="M708 578h-416c-37 0-67-30-67-67v-278c0-37 30-67 67-67h416c37 0 67 30 67 67v278c0 37-30 67-67 67h0z m42-345c0-23-19-42-42-42h-416c-23 0-42 19-42 42v278c0 23 19 42 42 42h416c23 0 42-19 42-42v0z m-375-136h263v25h-263z" horiz-adv-x="1000" />

<glyph glyph-name="up-arrow" unicode="&#xe818;" d="M284 229l-18 17 235 234 233-231-18-18-215 214-217-216z" horiz-adv-x="1000" />

<glyph glyph-name="weather" unicode="&#xe819;" d="M557 540l-17 17-40-40 17-17z m-269-23l-40 40-18-17 40-40z m118 96h-25v-57h25z m-231-232h57v25h-57z m533-47c-4 0-7 0-11 0-30 60-91 100-161 100h0c-6 0-13 0-19-1l1 0c-17 54-66 91-124 91-72 0-130-58-130-129 0 0 0 0 0 0v0c0-1 0-2 0-2 0-31 11-59 29-81l0 1c-35-24-58-64-58-108 0-72 58-130 129-130h344c70 2 126 59 126 130s-56 127-126 129l0 0z m-419 60c0 0 0 0 0 0 0 57 47 104 105 104 46 0 84-29 99-69l0-1h-1c-6-2-12-3-18-5h0c-5-2-10-4-15-7l-4-2c-5-2-9-5-14-7l-4-3c-4-3-7-5-10-7l-4-4c-4-3-8-6-11-10l-5-4c-2-3-5-6-8-9l-3-3c-3-5-6-9-9-14-1-1-2-2-3-3-2-5-5-10-8-15l0 0c-4 0-8 0-11 0s-9 0-13 0l-12-2c-5-1-9-2-12-3l1 0h-1c-4-1-8-3-12-4-16 18-26 41-27 67v1z m419-294h-344c-57 0-104 47-104 105 0 39 22 73 54 91l0 1 2 1 3 1c2 1 5 2 9 4l0 0 2 0c3 1 6 2 9 3l3 1c2 0 5 1 8 1h3c4 0 8 0 12 0 6 0 11 0 17-1l-1 0 10-2 4 9c3 6 5 12 8 17l0-1c0 1 1 2 1 3l0 0c3 5 6 9 10 13l-1 0 3 3c3 5 7 8 10 12l0 0 3 3c3 3 6 6 10 8l0 0 3 3c4 3 8 6 13 9l4 2c3 2 8 5 13 7l1 0 2 2c10 4 22 8 34 10l1 0h4c7 1 14 2 22 2 0 0 0 0 0 0h0c0 0 0 0 0 0 63 0 117-38 141-92l1-1 4-9 9 1c5 1 11 2 17 2h0c56-2 101-48 101-105s-45-103-101-105l0 0z" horiz-adv-x="1000" />
</font>
</defs>
</svg>
