<svg xmlns="http://www.w3.org/2000/svg" width="63.282" height="179.677" viewBox="0 0 63.282 179.677">
    <defs>
        <style>
            .cls-1{fill:none;stroke:#292929;stroke-linecap:round;stroke-linejoin:round}
        </style>
    </defs>
    <g id="button" transform="translate(-285 333.434)">
        <path id="Path_11" d="M.979 170.509a.979.979 0 0 1-.979-.975V.974A.976.976 0 0 1 .979 0h52.156a.973.973 0 0 1 .979.974v168.56a.976.976 0 0 1-.979.974z" class="cls-1" data-name="Path 11" transform="translate(289.5 -328.934)"/>
        <path id="Path_13" d="M57.362 178.677H4.92A4.9 4.9 0 0 1 0 173.8V4.882A4.9 4.9 0 0 1 4.92 0h52.442a4.9 4.9 0 0 1 4.92 4.882V173.8a4.9 4.9 0 0 1-4.92 4.877z" class="cls-1" data-name="Path 13" transform="translate(285.5 -332.934)"/>
    </g>
</svg>
